<svg width="34" height="34" viewBox="0 0 34 34" fill="none" xmlns="http://www.w3.org/2000/svg">
<path fill-rule="evenodd" clip-rule="evenodd" d="M13.3558 7.15061C16.6629 3.98495 22.0103 3.98495 25.3174 7.15061C28.6454 10.3362 28.6454 15.5169 25.3174 18.7025L16.385 27.2527C14.0361 29.5011 10.2424 29.5011 7.89354 27.2527C5.52385 24.9844 5.52385 21.2908 7.89354 19.0225L16.6974 10.5953C18.088 9.26414 20.3281 9.26415 21.7188 10.5953C23.1302 11.9464 23.1302 14.1528 21.7188 15.5038L12.8507 23.9925C12.5144 24.3144 11.9808 24.3028 11.6589 23.9665C11.337 23.6302 11.3487 23.0966 11.685 22.7747L20.5531 14.286C21.2711 13.5988 21.2711 12.5004 20.5531 11.8131C19.8143 11.1059 18.6019 11.1059 17.8631 11.8131L9.05922 20.2403C7.38298 21.8448 7.38298 24.4304 9.05922 26.0349C10.7563 27.6593 13.5223 27.6593 15.2194 26.0349L24.1517 17.4847C26.7862 14.9629 26.7862 10.8902 24.1517 8.36839C21.4964 5.82671 17.1767 5.82671 14.5215 8.36839L7.32416 15.2578C6.98788 15.5797 6.45432 15.568 6.13243 15.2317C5.81054 14.8954 5.8222 14.3619 6.15848 14.04L13.3558 7.15061Z" fill="#02040F"/>
</svg>
