<svg width="32" height="32" viewBox="0 0 32 32" fill="none" xmlns="http://www.w3.org/2000/svg">
<rect width="32" height="32" rx="16" fill="#006FCF"/>
<path d="M16.1211 16.6895C16.3872 16.6895 16.6314 16.749 16.8428 16.8555V16.7422H18.8975C19.1859 16.7422 19.4488 16.8063 19.6719 16.9229V16.7422H23.0488V16.9473C23.25 16.8535 23.4801 16.7994 23.7285 16.7939H26.0986L26.0908 16.8105C26.1547 16.8019 26.2203 16.7957 26.2871 16.7939H28.665L27.9814 18.2871L27.9854 18.29C28.1994 18.5113 28.3261 18.8166 28.3389 19.1875L28.3398 19.2227V19.25C28.3398 20.0966 27.7099 20.6536 26.8359 20.666H18.9912L18.6396 20.252L18.6172 20.666H16.8428V19.5547C16.6273 19.6626 16.3786 19.7239 16.1094 19.7295L16.0684 19.7305H15.8184V20.666H13.3584L12.9639 20.125L12.5869 20.666H8.5127V16.7422H12.5869L12.9775 17.249L13.3682 16.7422H14.5898L16.1113 16.6895H16.1211ZM7.09766 12.4609L7.09863 11.333H9.1582L9.3623 11.9434L9.56738 11.333L18.333 11.3848V11.7148C18.6298 11.486 19.01 11.3485 19.4521 11.334L19.4941 11.333H22.2695L22.7109 12.3408V11.333H24.4609L24.7012 11.7109V11.333H26.5059V15.2578H24.8154L24.5156 14.8047V15.2578H22.0293L21.7676 14.6855H21.1621L20.9004 15.2578H18.9697C18.7842 15.2124 18.6147 15.1057 18.4629 14.9961L18.4102 14.958L18.333 14.9004V15.2578H15.8477L15.4961 14.8428L15.4736 15.2578H6.33105L6.12207 14.6855H5.5498L5.28809 15.2578H3.33203L5.04785 11.333H6.60547L7.09766 12.4609Z" fill="white"/>
<path d="M24.9209 17.9502H23.7012C23.5524 17.9566 23.4541 18.059 23.4541 18.21C23.4542 18.3609 23.5524 18.4633 23.7012 18.4697H24.3691C24.8782 18.4779 25.1826 18.7382 25.1826 19.25C25.1826 19.7622 24.827 20.1231 24.2656 20.1338H22.8779V19.5615H24.3047C24.4576 19.5562 24.6047 19.4525 24.5537 19.25C24.5537 19.0991 24.4562 18.9968 24.3076 18.9902H23.6631L23.6338 18.9893C23.3517 18.9838 23.1326 18.9012 22.9941 18.7402L22.9902 18.7354C22.883 18.608 22.8252 18.4328 22.8252 18.21C22.8252 17.749 23.1809 17.3888 23.7422 17.3779H25.1826L24.9209 17.9502ZM27.4883 17.9502H26.2676C26.119 17.9568 26.0215 18.0591 26.0215 18.21C26.0216 18.3607 26.1191 18.4631 26.2676 18.4697H26.9365C27.4455 18.4779 27.75 18.7382 27.75 19.25C27.75 19.7622 27.3943 20.123 26.833 20.1338H25.4443V19.5615H26.876C27.0744 19.5561 27.1721 19.4524 27.1211 19.25C27.1211 19.099 27.0228 18.9967 26.874 18.9902H26.2305L26.1953 18.9893C26.0112 18.985 25.8538 18.948 25.7285 18.877C25.5126 18.7543 25.3926 18.5317 25.3926 18.21C25.3926 17.749 25.7483 17.3887 26.3096 17.3779H27.75L27.4883 17.9502ZM11.2988 17.8457H9.72754V18.3662H11.2471V18.9375H9.72754V19.5098H11.2988V20.082H9.09863V17.3262H11.2988V17.8457ZM12.9756 18.21L13.6572 17.3262H14.4424L13.3428 18.6777L14.4424 20.082H13.6572L12.9756 19.1455L12.2949 20.0303H11.5088L12.6094 18.6777L11.5088 17.3262H12.2949L12.9756 18.21ZM16.1484 17.2744C16.4409 17.2817 16.6779 17.3973 16.8369 17.5791C16.9819 17.745 17.0625 17.9662 17.0625 18.21C17.0624 18.7737 16.6552 19.1351 16.0918 19.1455H15.2285V20.082H14.5996V17.3262L16.1191 17.2734L16.1484 17.2744ZM18.9219 17.3262C19.4832 17.3369 19.8389 17.6977 19.8389 18.21C19.8388 18.399 19.7849 18.5668 19.6816 18.7031L19.6699 18.7178C19.5498 18.8684 19.3677 18.9792 19.1309 19.0361L19.1055 19.042L20.0488 20.082H19.2627L18.4248 19.0938H18.1104L18.0576 20.082H17.4287V17.3262H18.9219ZM22.459 17.8457H20.8867V18.3662H22.4062V18.9375H20.8867V19.5098H22.459V20.082H20.2578V17.3262H22.459V17.8457ZM15.2285 17.8975V18.626H16.0664C16.3283 18.626 16.4335 18.4696 16.4336 18.2617L16.4326 18.2461C16.4248 18.0461 16.2697 17.8976 16.0146 17.8975H15.2285ZM18.1094 18.5215H18.8955C19.1572 18.5215 19.2625 18.3658 19.2627 18.21C19.2626 18.054 19.1573 17.8975 18.8955 17.8975L18.1094 17.8457V18.5215ZM7.42285 14.6738H6.74121L6.53223 14.1016H5.16992L4.90723 14.6738H4.22656L5.43164 11.917H6.21777L7.42285 14.6738ZM9.36133 13.7891L9.98926 11.917H11.0371V14.6738H10.4082V12.4375L9.62305 14.6738H9.04688L8.31348 12.4375V14.6738H7.68457V11.917H8.73242L9.36133 13.7891ZM13.8145 12.4375H12.2422V12.957H13.7617V13.5293H12.2422V14.1016H13.8145V14.6738H11.6133V11.917H13.8145V12.4375ZM15.7783 11.917C16.3396 11.9277 16.6952 12.2887 16.6953 12.8008C16.6953 13.2093 16.4427 13.5174 15.9873 13.627L15.9619 13.6328L16.9053 14.6738H16.1191L15.2812 13.6855H14.9668L14.9141 14.6738H14.2852V11.917H15.7783ZM17.7432 14.6738H17.1143V11.9688H17.7432V14.6738ZM20.2578 12.4893H19.5537C19.1047 12.4993 18.8522 12.7987 18.8438 13.2461V13.3447C18.8523 13.792 19.1048 14.0906 19.5537 14.1006L19.5771 14.1016H19.7344L19.4727 14.6738L19.4463 14.6729C18.685 14.6615 18.2252 14.1552 18.2148 13.3486V13.2432C18.2251 12.485 18.6855 11.9294 19.4971 11.917H20.2578V12.4893ZM23.0869 14.6738H22.4062L22.1445 14.1016H20.7822L20.5205 14.6738H19.8389L21.0439 11.917H21.8818L23.0869 14.6738ZM25.1309 13.4775L25.2881 13.7373V11.917H25.916V14.6738H25.1309L24.0303 13.0088L23.9258 12.8008V14.6738H23.2969V11.917H24.1348L25.1309 13.4775ZM5.64062 12.957L5.37891 13.5811H6.32227L6.05957 12.957L5.85059 12.3848L5.64062 12.957ZM21.3057 12.957L21.0439 13.5811H21.9863L21.7246 12.957L21.5156 12.3848L21.3057 12.957ZM14.9668 13.1133H15.752C16.0139 13.1133 16.1191 12.9568 16.1191 12.8008C16.119 12.6449 16.0137 12.4893 15.752 12.4893L14.9668 12.4365V13.1133Z" fill="#006FCF"/>
</svg>
