<svg width="21" height="22" viewBox="0 0 21 22" fill="none" xmlns="http://www.w3.org/2000/svg">
<path d="M4.99916 7.43172H14.9992C15.2644 7.43172 15.5187 7.54357 15.7063 7.74268C15.8938 7.94178 15.9992 8.21182 15.9992 8.49339C15.9992 8.77497 15.8938 9.04501 15.7063 9.24411C15.5187 9.44321 15.2644 9.55507 14.9992 9.55507H4.99916C4.73394 9.55507 4.47959 9.44321 4.29205 9.24411C4.10451 9.04501 3.99916 8.77497 3.99916 8.49339C3.99916 8.21182 4.10451 7.94178 4.29205 7.74268C4.47959 7.54357 4.73394 7.43172 4.99916 7.43172ZM8.99916 11.6784H14.9992C15.2644 11.6784 15.5187 11.7903 15.7063 11.9894C15.8938 12.1885 15.9992 12.4585 15.9992 12.7401C15.9992 13.0217 15.8938 13.2917 15.7063 13.4908C15.5187 13.6899 15.2644 13.8018 14.9992 13.8018H8.99916C8.73394 13.8018 8.47959 13.6899 8.29205 13.4908C8.10451 13.2917 7.99916 13.0217 7.99916 12.7401C7.99916 12.4585 8.10451 12.1885 8.29205 11.9894C8.47959 11.7903 8.73394 11.6784 8.99916 11.6784ZM9.99916 0C11.3124 0 12.6127 0.27461 13.826 0.808151C15.0392 1.34169 16.1416 2.12372 17.0702 3.10957C18.9456 5.1006 19.9992 7.80101 19.9992 10.6167C20.0079 13.0683 19.2084 15.4458 17.7392 17.3371L19.7392 19.4605C19.8779 19.6098 19.9719 19.7994 20.0093 20.0053C20.0467 20.2113 20.0257 20.4244 19.9492 20.6177C19.8661 20.8087 19.7315 20.9693 19.5623 21.0789C19.3932 21.1885 19.1972 21.2423 18.9992 21.2335H9.99916C7.34699 21.2335 4.80345 20.1149 2.92809 18.1239C1.05272 16.1329 -0.000843048 13.4325 -0.000843048 10.6167C-0.000843048 7.80101 1.05272 5.1006 2.92809 3.10957C4.80345 1.11855 7.34699 0 9.99916 0ZM9.99916 19.1101H16.5892L15.6592 18.1228C15.4729 17.9239 15.3684 17.6548 15.3684 17.3743C15.3684 17.0938 15.4729 16.8247 15.6592 16.6258C16.9686 15.2372 17.784 13.4095 17.9665 11.4542C18.1489 9.49885 17.6872 7.53683 16.6599 5.9024C15.6326 4.26797 14.1034 3.06225 12.3326 2.49066C10.5619 1.91907 8.6593 2.01697 6.94894 2.76769C5.23858 3.51841 3.82631 4.8755 2.95272 6.60774C2.07913 8.33999 1.79829 10.3402 2.15803 12.2677C2.51777 14.1951 3.49585 15.9305 4.92562 17.1781C6.35539 18.4258 8.14839 19.1086 9.99916 19.1101Z" fill="white"/>
</svg>
