<svg width="21" height="20" viewBox="0 0 21 20" fill="none" xmlns="http://www.w3.org/2000/svg">
<path d="M4.99916 7H14.9992C15.2644 7 15.5187 7.10536 15.7063 7.29289C15.8938 7.48043 15.9992 7.73478 15.9992 8C15.9992 8.26522 15.8938 8.51957 15.7063 8.70711C15.5187 8.89464 15.2644 9 14.9992 9H4.99916C4.73394 9 4.47959 8.89464 4.29205 8.70711C4.10451 8.51957 3.99916 8.26522 3.99916 8C3.99916 7.73478 4.10451 7.48043 4.29205 7.29289C4.47959 7.10536 4.73394 7 4.99916 7ZM8.99916 11H14.9992C15.2644 11 15.5187 11.1054 15.7063 11.2929C15.8938 11.4804 15.9992 11.7348 15.9992 12C15.9992 12.2652 15.8938 12.5196 15.7063 12.7071C15.5187 12.8946 15.2644 13 14.9992 13H8.99916C8.73394 13 8.47959 12.8946 8.29205 12.7071C8.10451 12.5196 7.99916 12.2652 7.99916 12C7.99916 11.7348 8.10451 11.4804 8.29205 11.2929C8.47959 11.1054 8.73394 11 8.99916 11ZM9.99916 0C11.3124 0 12.6127 0.258658 13.826 0.761205C15.0392 1.26375 16.1416 2.00035 17.0702 2.92893C18.9456 4.8043 19.9992 7.34784 19.9992 10C20.0079 12.3091 19.2084 14.5485 17.7392 16.33L19.7392 18.33C19.8779 18.4706 19.9719 18.6492 20.0093 18.8432C20.0467 19.0372 20.0257 19.2379 19.9492 19.42C19.8661 19.5999 19.7315 19.7511 19.5623 19.8544C19.3932 19.9577 19.1972 20.0083 18.9992 20H9.99916C7.34699 20 4.80345 18.9464 2.92809 17.0711C1.05272 15.1957 -0.000843048 12.6522 -0.000843048 10C-0.000843048 7.34784 1.05272 4.8043 2.92809 2.92893C4.80345 1.05357 7.34699 0 9.99916 0ZM9.99916 18H16.5892L15.6592 17.07C15.4729 16.8826 15.3684 16.6292 15.3684 16.365C15.3684 16.1008 15.4729 15.8474 15.6592 15.66C16.9686 14.352 17.784 12.6305 17.9665 10.7888C18.1489 8.94705 17.6872 7.09901 16.6599 5.55952C15.6326 4.02004 14.1034 2.88436 12.3326 2.34597C10.5619 1.80759 8.6593 1.8998 6.94894 2.60691C5.23858 3.31402 3.82631 4.59227 2.95272 6.22389C2.07913 7.85551 1.79829 9.73954 2.15803 11.555C2.51777 13.3705 3.49585 15.005 4.92562 16.1802C6.35539 17.3554 8.14839 17.9985 9.99916 18Z" fill="#5459EA"/>
</svg>
