<svg width="20" height="20" viewBox="0 0 20 20" fill="none" xmlns="http://www.w3.org/2000/svg">
<path d="M18.332 5.41675H13.332" stroke="white" stroke-width="1.5" stroke-miterlimit="10" stroke-linecap="round" stroke-linejoin="round"/>
<path d="M5.0013 5.41675H1.66797" stroke="white" stroke-width="1.5" stroke-miterlimit="10" stroke-linecap="round" stroke-linejoin="round"/>
<path d="M8.33464 8.33333C9.94547 8.33333 11.2513 7.0275 11.2513 5.41667C11.2513 3.80584 9.94547 2.5 8.33464 2.5C6.7238 2.5 5.41797 3.80584 5.41797 5.41667C5.41797 7.0275 6.7238 8.33333 8.33464 8.33333Z" stroke="white" stroke-width="1.5" stroke-miterlimit="10" stroke-linecap="round" stroke-linejoin="round"/>
<path d="M18.3333 14.5833H15" stroke="white" stroke-width="1.5" stroke-miterlimit="10" stroke-linecap="round" stroke-linejoin="round"/>
<path d="M6.66797 14.5833H1.66797" stroke="white" stroke-width="1.5" stroke-miterlimit="10" stroke-linecap="round" stroke-linejoin="round"/>
<path d="M11.6667 17.5001C13.2775 17.5001 14.5833 16.1942 14.5833 14.5834C14.5833 12.9726 13.2775 11.6667 11.6667 11.6667C10.0558 11.6667 8.75 12.9726 8.75 14.5834C8.75 16.1942 10.0558 17.5001 11.6667 17.5001Z" stroke="white" stroke-width="1.5" stroke-miterlimit="10" stroke-linecap="round" stroke-linejoin="round"/>
</svg>
