<svg width="28" height="28" viewBox="0 0 28 28" fill="none" xmlns="http://www.w3.org/2000/svg">
<g clip-path="url(#clip0_546_2860)">
<path d="M25.6654 14.0002C25.6654 20.4435 20.442 25.6668 13.9987 25.6668M25.6654 14.0002C25.6654 7.55684 20.442 2.3335 13.9987 2.3335M25.6654 14.0002H2.33203M13.9987 25.6668C7.55538 25.6668 2.33203 20.4435 2.33203 14.0002M13.9987 25.6668C16.9169 22.4721 18.5752 18.3261 18.6654 14.0002C18.5752 9.6742 16.9169 5.52824 13.9987 2.3335M13.9987 25.6668C11.0805 22.4721 9.42215 18.3261 9.33203 14.0002C9.42215 9.6742 11.0805 5.52824 13.9987 2.3335M2.33203 14.0002C2.33203 7.55684 7.55538 2.3335 13.9987 2.3335" stroke="#1E1E1E" stroke-width="4" stroke-linecap="round" stroke-linejoin="round"/>
</g>
<defs>
<clipPath id="clip0_546_2860">
<rect width="28" height="28" fill="white"/>
</clipPath>
</defs>
</svg>
