<svg width="50" height="50" viewBox="0 0 50 50" fill="none" xmlns="http://www.w3.org/2000/svg">
<path d="M25 0C11.25 0 0 11.25 0 25C0 38.75 11.25 50 25 50C38.75 50 50 38.75 50 25C50 11.25 38.75 0 25 0ZM34.25 26.75L26.75 34.25C25.75 35.25 24.25 35.25 23.25 34.25C22.25 33.25 22.25 31.75 23.25 30.75L26.5 27.5H17.5C16 27.5 15 26.5 15 25C15 23.5 16 22.5 17.5 22.5H26.5L23.25 19.25C22.25 18.25 22.25 16.75 23.25 15.75C24.25 14.75 25.75 14.75 26.75 15.75L34.25 23.25C35.25 24.25 35.25 25.75 34.25 26.75Z" fill="#5F66E9"/>
</svg>
