<svg width="27" height="27" viewBox="0 0 27 27" fill="none" xmlns="http://www.w3.org/2000/svg">
<path d="M17.3333 9.33333H14.6667V6.66667C14.6667 6.31304 14.5262 5.97391 14.2761 5.72386C14.0261 5.47381 13.687 5.33333 13.3333 5.33333C12.9797 5.33333 12.6406 5.47381 12.3905 5.72386C12.1405 5.97391 12 6.31304 12 6.66667V9.33333H9.33333C8.97971 9.33333 8.64057 9.47381 8.39052 9.72386C8.14048 9.97391 8 10.313 8 10.6667C8 11.0203 8.14048 11.3594 8.39052 11.6095C8.64057 11.8595 8.97971 12 9.33333 12H12V14.6667C12 15.0203 12.1405 15.3594 12.3905 15.6095C12.6406 15.8595 12.9797 16 13.3333 16C13.687 16 14.0261 15.8595 14.2761 15.6095C14.5262 15.3594 14.6667 15.0203 14.6667 14.6667V12H17.3333C17.687 12 18.0261 11.8595 18.2761 11.6095C18.5262 11.3594 18.6667 11.0203 18.6667 10.6667C18.6667 10.313 18.5262 9.97391 18.2761 9.72386C18.0261 9.47381 17.687 9.33333 17.3333 9.33333ZM22.6667 0H4C2.93913 0 1.92172 0.421428 1.17157 1.17157C0.421428 1.92172 0 2.93913 0 4V17.3333C0 18.3942 0.421428 19.4116 1.17157 20.1618C1.92172 20.9119 2.93913 21.3333 4 21.3333H19.4533L24.3867 26.28C24.5113 26.4036 24.659 26.5013 24.8215 26.5677C24.9839 26.634 25.1579 26.6677 25.3333 26.6667C25.5082 26.6712 25.6818 26.6346 25.84 26.56C26.0835 26.46 26.2919 26.2901 26.439 26.0718C26.5862 25.8535 26.6654 25.5966 26.6667 25.3333V4C26.6667 2.93913 26.2452 1.92172 25.4951 1.17157C24.7449 0.421428 23.7275 0 22.6667 0ZM24 22.12L20.9467 19.0533C20.8221 18.9298 20.6743 18.832 20.5119 18.7656C20.3494 18.6993 20.1755 18.6657 20 18.6667H4C3.64638 18.6667 3.30724 18.5262 3.05719 18.2761C2.80714 18.0261 2.66667 17.687 2.66667 17.3333V4C2.66667 3.64638 2.80714 3.30724 3.05719 3.05719C3.30724 2.80714 3.64638 2.66667 4 2.66667H22.6667C23.0203 2.66667 23.3594 2.80714 23.6095 3.05719C23.8595 3.30724 24 3.64638 24 4V22.12Z" fill="#27C840"/>
</svg>
