<svg width="32" height="32" viewBox="0 0 32 32" fill="none" xmlns="http://www.w3.org/2000/svg">
<rect width="32" height="32" rx="16" fill="#F7F7F7"/>
<path fill-rule="evenodd" clip-rule="evenodd" d="M27.5937 14.2295C27.7931 14.2295 27.9052 14.303 27.9052 14.4348H27.9084C27.9084 14.5261 27.8429 14.5945 27.7277 14.6199L27.9987 14.8962H27.7588L27.5283 14.6376V14.8962H27.332V14.2295H27.5937ZM27.5252 14.5261H27.5563C27.656 14.5261 27.7059 14.4957 27.7059 14.4374C27.7059 14.379 27.656 14.3512 27.5594 14.3512H27.5252V14.5261Z" fill="black"/>
<path fill-rule="evenodd" clip-rule="evenodd" d="M27.1406 14.4195C27.1406 14.2351 27.2883 14.0869 27.4754 14.0869C27.6582 14.0869 27.8073 14.2351 27.8073 14.4195C27.8073 14.604 27.6596 14.7536 27.4754 14.7536C27.2912 14.7536 27.1406 14.604 27.1406 14.4195ZM27.2079 14.421C27.2079 14.572 27.3278 14.694 27.4754 14.694C27.6231 14.694 27.7415 14.5691 27.7415 14.421C27.7415 14.2728 27.6245 14.1479 27.4754 14.1479C27.3263 14.1479 27.2079 14.2699 27.2079 14.421Z" fill="black"/>
<path fill-rule="evenodd" clip-rule="evenodd" d="M25.6344 14.1162C26.474 14.1162 26.9557 14.5237 26.9557 15.231C26.9557 15.8093 26.6541 16.189 26.1049 16.3016L27.281 17.8922H26.3851L25.3767 16.375H25.2816V17.8922H24.5547V14.1162H25.6344ZM25.2816 15.8549H25.4943C25.9597 15.8549 26.2062 15.6372 26.2062 15.2703C26.2062 14.9033 25.9597 14.711 25.5056 14.711H25.2816V15.8549Z" fill="black"/>
<path d="M22.0078 17.8922H24.0735V17.2532H22.7347V16.2333H24.0234V15.5942H22.7347V14.7565H24.0735V14.1162H22.0078V17.8922V17.8922Z" fill="black"/>
<path d="M19.8803 16.6521L18.8843 14.1162H18.0898L19.6738 17.9897H20.0654L21.6794 14.1162H20.8887L19.8803 16.6521V16.6521Z" fill="black"/>
<path d="M18.2974 16.0006C18.2974 17.1053 17.4128 18 16.3206 18C15.2283 18 14.3438 17.1041 14.3438 16.0006C14.3438 14.8972 15.2283 14 16.3206 14C17.4128 14 18.2974 14.8959 18.2974 15.9994V16.0006Z" fill="url(#paint0_linear_205_24294)"/>
<g style="mix-blend-mode:multiply" opacity="0.65">
<path d="M18.2974 16.0006C18.2974 17.1053 17.4128 18 16.3206 18C15.2283 18 14.3438 17.1041 14.3438 16.0006C14.3438 14.8972 15.2283 14 16.3206 14C17.4128 14 18.2974 14.8959 18.2974 15.9994V16.0006Z" fill="url(#paint1_linear_205_24294)"/>
</g>
<path d="M11.2227 16.0066C11.2227 17.1164 12.0847 17.9768 13.1932 17.9768C13.5073 17.9768 13.775 17.9148 14.1066 17.7567V16.8898C13.8151 17.1847 13.5573 17.3036 13.227 17.3036C12.4938 17.3036 11.9734 16.7658 11.9734 16.0015C11.9734 15.2764 12.5101 14.7045 13.1932 14.7045C13.5411 14.7045 13.8038 14.8297 14.1066 15.1296V14.2628C13.7875 14.0983 13.5235 14.0312 13.2107 14.0312C12.1072 14.0312 11.2227 14.9095 11.2227 16.0078V16.0066Z" fill="black"/>
<path d="M9.91655 15.5649C9.4799 15.4017 9.35103 15.2928 9.35103 15.0891C9.35103 14.8512 9.57999 14.6703 9.89403 14.6703C10.113 14.6703 10.2919 14.7614 10.4808 14.9765L10.8624 14.4716C10.5496 14.1945 10.1743 14.0527 9.76516 14.0527C9.10455 14.0527 8.60033 14.5171 8.60033 15.1347C8.60033 15.6548 8.83555 15.9218 9.51868 16.1698C9.80395 16.271 9.94908 16.3394 10.0216 16.3849C10.1668 16.4811 10.2406 16.6165 10.2406 16.7759C10.2406 17.0822 10.0004 17.3087 9.67508 17.3087C9.32851 17.3087 9.04825 17.1328 8.88059 16.805L8.41016 17.2631C8.74547 17.7617 9.14834 17.9819 9.7026 17.9819C10.4596 17.9819 10.99 17.4732 10.99 16.7418C10.99 16.1419 10.7448 15.8699 9.91655 15.5636V15.5649Z" fill="black"/>
<rect x="7.40625" y="14.1162" width="0.728174" height="3.77602" fill="black"/>
<path fill-rule="evenodd" clip-rule="evenodd" d="M4 14.1162H5.06849C6.24958 14.1162 7.07285 14.8919 7.0741 16.0055C7.0741 16.5623 6.82136 17.0988 6.39597 17.4557C6.03689 17.7581 5.62901 17.8922 5.06349 17.8922H4V14.1162ZM4.9221 17.2532C5.39254 17.2532 5.69032 17.1621 5.91928 16.9533C6.17076 16.7268 6.32215 16.3636 6.32215 16.0017C6.32215 15.6398 6.17076 15.288 5.91928 15.0615C5.6778 14.8413 5.39254 14.7565 4.9221 14.7565H4.72692V17.2532H4.9221Z" fill="black"/>
<defs>
<linearGradient id="paint0_linear_205_24294" x1="18.404" y1="16.9103" x2="17.0125" y2="14.7573" gradientUnits="userSpaceOnUse">
<stop stop-color="#F9A020"/>
<stop offset="0.25" stop-color="#F89B20"/>
<stop offset="0.53" stop-color="#F68D20"/>
<stop offset="0.62" stop-color="#F68820"/>
<stop offset="0.73" stop-color="#F58120"/>
<stop offset="1" stop-color="#F47521"/>
</linearGradient>
<linearGradient id="paint1_linear_205_24294" x1="19.0713" y1="16.5615" x2="17.0335" y2="12.6251" gradientUnits="userSpaceOnUse">
<stop stop-color="#F68820" stop-opacity="0.01"/>
<stop offset="0.11" stop-color="#EE7F22" stop-opacity="0.14"/>
<stop offset="0.31" stop-color="#E37226" stop-opacity="0.35"/>
<stop offset="0.5" stop-color="#DB6829" stop-opacity="0.52"/>
<stop offset="0.69" stop-color="#D5602C" stop-opacity="0.64"/>
<stop offset="0.85" stop-color="#D15C2D" stop-opacity="0.71"/>
<stop offset="0.98" stop-color="#D05B2E" stop-opacity="0.74"/>
</linearGradient>
</defs>
</svg>
