<svg width="25" height="26" viewBox="0 0 25 26" fill="none" xmlns="http://www.w3.org/2000/svg">
<path d="M11.1657 0.810547H8.79551C2.87015 0.810547 0.5 3.27951 0.5 9.45193V16.8588C0.5 23.0312 2.87015 25.5002 8.79551 25.5002H15.9059C21.8313 25.5002 24.2015 23.0312 24.2015 16.8588V14.3899" stroke="#5F66E9" stroke-linecap="round" stroke-linejoin="round"/>
<path d="M17.1394 2.06931L7.80105 11.797C7.44553 12.1674 7.09001 12.8957 7.0189 13.4266L6.50932 17.1424C6.31971 18.4879 7.23222 19.4261 8.52395 19.241L12.091 18.7101C12.5887 18.6361 13.2879 18.2657 13.6553 17.8954L22.9937 8.16766C24.6054 6.48876 25.3638 4.53828 22.9937 2.06931C20.6235 -0.399655 18.7511 0.390414 17.1394 2.06931Z" stroke="#5F66E9" stroke-miterlimit="10" stroke-linecap="round" stroke-linejoin="round"/>
<path d="M15.8008 3.46387C16.5948 6.41428 18.8109 8.72277 21.655 9.56222" stroke="#5F66E9" stroke-miterlimit="10" stroke-linecap="round" stroke-linejoin="round"/>
</svg>
