<svg width="24" height="25" viewBox="0 0 24 25" fill="none" xmlns="http://www.w3.org/2000/svg">
<path fill-rule="evenodd" clip-rule="evenodd" d="M11.8587 1.68576C6.11735 1.68576 1.46311 6.34001 1.46311 12.0813C1.46311 17.8226 6.11735 22.4769 11.8587 22.4769C17.6 22.4769 22.2542 17.8226 22.2542 12.0813C22.2542 6.34001 17.6 1.68576 11.8587 1.68576ZM-0.222656 12.0813C-0.222656 5.40899 5.18633 0 11.8587 0C18.531 0 23.94 5.40899 23.94 12.0813C23.94 18.7536 18.531 24.1626 11.8587 24.1626C5.18633 24.1626 -0.222656 18.7536 -0.222656 12.0813ZM7.80998 16.0748C8.08718 15.7008 8.61507 15.6223 8.98905 15.8995C9.80759 16.5063 10.7956 16.8576 11.8587 16.8576C12.9217 16.8576 13.9097 16.5063 14.7283 15.8995C15.1022 15.6223 15.6301 15.7008 15.9073 16.0748C16.1845 16.4487 16.1061 16.9766 15.7321 17.2538C14.6393 18.0639 13.3028 18.5434 11.8587 18.5434C10.4145 18.5434 9.07804 18.0639 7.9852 17.2538C7.61123 16.9766 7.53278 16.4487 7.80998 16.0748Z" fill="#02040F"/>
<path d="M16.354 10.3955C16.354 11.3266 15.8509 12.0813 15.2302 12.0813C14.6095 12.0813 14.1063 11.3266 14.1063 10.3955C14.1063 9.46452 14.6095 8.70978 15.2302 8.70978C15.8509 8.70978 16.354 9.46452 16.354 10.3955Z" fill="#02040F"/>
<path d="M9.61097 10.3955C9.61097 11.3266 9.10781 12.0813 8.48712 12.0813C7.86644 12.0813 7.36328 11.3266 7.36328 10.3955C7.36328 9.46452 7.86644 8.70978 8.48712 8.70978C9.10781 8.70978 9.61097 9.46452 9.61097 10.3955Z" fill="#02040F"/>
</svg>
