<svg width="34" height="35" viewBox="0 0 34 35" fill="none" xmlns="http://www.w3.org/2000/svg">
<path fill-rule="evenodd" clip-rule="evenodd" d="M13.5515 0.210847C14.2973 -0.0130964 15.0852 -0.0594228 15.8521 0.0755661C16.619 0.210555 17.3438 0.523121 17.9686 0.988313C18.5934 1.45351 19.1009 2.05844 19.4505 2.75484C19.8002 3.45123 19.9824 4.21979 19.9825 4.99918V29.3725C19.9824 30.1519 19.8002 30.9205 19.4505 31.6169C19.1009 32.3132 18.5934 32.9182 17.9686 33.3834C17.3438 33.8486 16.619 34.1611 15.8521 34.2961C15.0852 34.4311 14.2973 34.3848 13.5515 34.1608L3.56021 31.1608C2.53128 30.8519 1.62925 30.2192 0.987937 29.3567C0.346619 28.4942 0.000176161 27.4477 0 26.3725V7.99918C0.000176161 6.92401 0.346619 5.87753 0.987937 5.01499C1.62925 4.15244 2.53128 3.51978 3.56021 3.21085L13.5515 0.210847ZM21.6477 3.85251C21.6477 3.41049 21.8231 2.98656 22.1354 2.674C22.4477 2.36144 22.8713 2.18585 23.3129 2.18585H28.3085C29.6334 2.18585 30.9041 2.71263 31.841 3.65031C32.7778 4.588 33.3041 5.85976 33.3041 7.18585V8.85251C33.3041 9.29454 33.1287 9.71846 32.8164 10.031C32.5041 10.3436 32.0806 10.5192 31.6389 10.5192C31.1973 10.5192 30.7737 10.3436 30.4615 10.031C30.1492 9.71846 29.9737 9.29454 29.9737 8.85251V7.18585C29.9737 6.74382 29.7983 6.3199 29.486 6.00734C29.1737 5.69478 28.7502 5.51918 28.3085 5.51918H23.3129C22.8713 5.51918 22.4477 5.34359 22.1354 5.03102C21.8231 4.71846 21.6477 4.29454 21.6477 3.85251ZM31.6389 23.8525C32.0806 23.8525 32.5041 24.0281 32.8164 24.3407C33.1287 24.6532 33.3041 25.0772 33.3041 25.5192V27.1858C33.3041 28.5119 32.7778 29.7837 31.841 30.7214C30.9041 31.6591 29.6334 32.1858 28.3085 32.1858H23.3129C22.8713 32.1858 22.4477 32.0103 22.1354 31.6977C21.8231 31.3851 21.6477 30.9612 21.6477 30.5192C21.6477 30.0772 21.8231 29.6532 22.1354 29.3407C22.4477 29.0281 22.8713 28.8525 23.3129 28.8525H28.3085C28.7502 28.8525 29.1737 28.6769 29.486 28.3644C29.7983 28.0518 29.9737 27.6279 29.9737 27.1858V25.5192C29.9737 25.0772 30.1492 24.6532 30.4615 24.3407C30.7737 24.0281 31.1973 23.8525 31.6389 23.8525ZM11.6565 15.5192C11.2148 15.5192 10.7913 15.6948 10.479 16.0073C10.1667 16.3199 9.99124 16.7438 9.99124 17.1858C9.99124 17.6279 10.1667 18.0518 10.479 18.3644C10.7913 18.6769 11.2148 18.8525 11.6565 18.8525H11.6581C12.0998 18.8525 12.5233 18.6769 12.8356 18.3644C13.1479 18.0518 13.3233 17.6279 13.3233 17.1858C13.3233 16.7438 13.1479 16.3199 12.8356 16.0073C12.5233 15.6948 12.0998 15.5192 11.6581 15.5192H11.6565Z" fill="white"/>
<path d="M23.3125 17.1859H31.6385H23.3125ZM31.6385 17.1859L28.3081 13.8525L31.6385 17.1859ZM31.6385 17.1859L28.3081 20.5192L31.6385 17.1859Z" fill="white"/>
<path d="M31.6385 17.1859L28.3081 20.5192M23.3125 17.1859H31.6385H23.3125ZM31.6385 17.1859L28.3081 13.8525L31.6385 17.1859Z" stroke="#3366FF" stroke-width="3.33333" stroke-linecap="round" stroke-linejoin="round"/>
</svg>
