<svg width="28" height="28" viewBox="0 0 28 28" fill="none" xmlns="http://www.w3.org/2000/svg">
<circle cx="14" cy="14" r="14" fill="#5F66E9"/>
<path d="M6.8608 9.27273H8.79545L11.3864 15.5966H11.4886L14.0795 9.27273H16.0142V18H14.4972V12.0043H14.4162L12.0043 17.9744H10.8707L8.45881 11.9915H8.37784V18H6.8608V9.27273ZM17.6676 18V11.4545H19.2102V18H17.6676ZM18.4432 10.5256C18.1989 10.5256 17.9886 10.4446 17.8125 10.2827C17.6364 10.1179 17.5483 9.92045 17.5483 9.69034C17.5483 9.45739 17.6364 9.25994 17.8125 9.09801C17.9886 8.93324 18.1989 8.85085 18.4432 8.85085C18.6903 8.85085 18.9006 8.93324 19.0739 9.09801C19.25 9.25994 19.3381 9.45739 19.3381 9.69034C19.3381 9.92045 19.25 10.1179 19.0739 10.2827C18.9006 10.4446 18.6903 10.5256 18.4432 10.5256Z" fill="black"/>
</svg>
