<svg width="28" height="28" viewBox="0 0 28 28" fill="none" xmlns="http://www.w3.org/2000/svg">
<circle cx="14" cy="14" r="14" fill="#5F66E9"/>
<path d="M12.8182 18H9.8608V9.27273H12.8778C13.7443 9.27273 14.4886 9.44744 15.1108 9.79688C15.7358 10.1435 16.2159 10.642 16.5511 11.2926C16.8864 11.9432 17.054 12.7216 17.054 13.6278C17.054 14.5369 16.8849 15.3182 16.5469 15.9716C16.2116 16.625 15.7273 17.1264 15.0938 17.4759C14.4631 17.8253 13.7045 18 12.8182 18ZM11.4418 16.6321H12.7415C13.3494 16.6321 13.8565 16.5213 14.2628 16.2997C14.669 16.0753 14.9744 15.7415 15.179 15.2983C15.3835 14.8523 15.4858 14.2955 15.4858 13.6278C15.4858 12.9602 15.3835 12.4062 15.179 11.9659C14.9744 11.5227 14.6719 11.1918 14.2713 10.973C13.8736 10.7514 13.3793 10.6406 12.7884 10.6406H11.4418V16.6321Z" fill="black"/>
</svg>
