<svg width="28" height="28" viewBox="0 0 28 28" fill="none" xmlns="http://www.w3.org/2000/svg">
<circle cx="14" cy="14" r="14" fill="#5F66E9"/>
<path d="M14.304 11.2727H15.8722V17.4091C15.8693 17.9716 15.75 18.456 15.5142 18.8622C15.2784 19.2656 14.9489 19.5767 14.5256 19.7955C14.1051 20.0114 13.6151 20.1193 13.0554 20.1193C12.544 20.1193 12.0838 20.0284 11.6747 19.8466C11.2685 19.6619 10.946 19.3892 10.7074 19.0284C10.4688 18.6676 10.3494 18.2187 10.3494 17.6818H11.9219C11.9247 17.9176 11.9759 18.1207 12.0753 18.2912C12.1776 18.4616 12.3182 18.5923 12.4972 18.6832C12.6761 18.7741 12.8821 18.8196 13.1151 18.8196C13.3679 18.8196 13.5824 18.767 13.7585 18.6619C13.9347 18.554 14.0682 18.3949 14.1591 18.1847C14.2528 17.9744 14.3011 17.7159 14.304 17.4091V11.2727Z" fill="black"/>
</svg>
