<svg width="28" height="28" viewBox="0 0 28 28" fill="none" xmlns="http://www.w3.org/2000/svg">
<circle cx="14" cy="14" r="14" fill="#5F66E9"/>
<path d="M15.6037 13.6719C15.5639 13.2997 15.3963 13.0099 15.1009 12.8026C14.8082 12.5952 14.4276 12.4915 13.9588 12.4915C13.6293 12.4915 13.3466 12.5412 13.1108 12.6406C12.875 12.7401 12.6946 12.875 12.5696 13.0455C12.4446 13.2159 12.3807 13.4105 12.3778 13.6293C12.3778 13.8111 12.419 13.9687 12.5014 14.1023C12.5866 14.2358 12.7017 14.3494 12.8466 14.4432C12.9915 14.5341 13.152 14.6108 13.3281 14.6733C13.5043 14.7358 13.6818 14.7884 13.8608 14.831L14.679 15.0355C15.0085 15.1122 15.3253 15.2159 15.6293 15.3466C15.9361 15.4773 16.2102 15.642 16.4517 15.8409C16.696 16.0398 16.8892 16.2798 17.0312 16.5611C17.1733 16.8423 17.2443 17.1719 17.2443 17.5497C17.2443 18.0611 17.1136 18.5114 16.8523 18.9006C16.5909 19.2869 16.2131 19.5895 15.7188 19.8082C15.2273 20.0241 14.6321 20.1321 13.9332 20.1321C13.2543 20.1321 12.6648 20.027 12.1648 19.8168C11.6676 19.6065 11.2784 19.2997 10.9972 18.8963C10.7188 18.4929 10.5682 18.0014 10.5455 17.4219H12.1009C12.1236 17.7259 12.2173 17.9787 12.3821 18.1804C12.5469 18.3821 12.7614 18.5327 13.0256 18.6321C13.2926 18.7315 13.5909 18.7812 13.9205 18.7812C14.2642 18.7812 14.5653 18.7301 14.8239 18.6278C15.0852 18.5227 15.2898 18.3778 15.4375 18.1932C15.5852 18.0057 15.6605 17.7869 15.6634 17.5369C15.6605 17.3097 15.5938 17.1222 15.4631 16.9744C15.3324 16.8239 15.1491 16.6989 14.9134 16.5994C14.6804 16.4972 14.4077 16.4062 14.0952 16.3267L13.1023 16.071C12.3835 15.8864 11.8153 15.6065 11.3977 15.2315C10.983 14.8537 10.7756 14.3523 10.7756 13.7273C10.7756 13.2131 10.9148 12.7628 11.1932 12.3764C11.4744 11.9901 11.8565 11.6903 12.3395 11.4773C12.8224 11.2614 13.3693 11.1534 13.9801 11.1534C14.5994 11.1534 15.142 11.2614 15.608 11.4773C16.0767 11.6903 16.4446 11.9872 16.7116 12.3679C16.9787 12.7457 17.1165 13.1804 17.125 13.6719H15.6037Z" fill="black"/>
</svg>
