<svg width="20" height="20" viewBox="0 0 20 20" fill="none" xmlns="http://www.w3.org/2000/svg">
<g clip-path="url(#clip0_227_21122)">
<path d="M14.6157 0C12.9165 0 11.5388 1.37923 11.5388 3.07692C11.5388 5.12692 14.2311 7.92769 14.2311 10.7454H15.0003C15.0011 7.92769 17.6926 5.20769 17.6926 3.07692C17.6926 1.37923 16.3149 0 14.6157 0ZM14.6157 1.49077C14.8241 1.49087 15.0304 1.53202 15.2229 1.61186C15.4154 1.6917 15.5903 1.80868 15.7376 1.95611C15.8849 2.10354 16.0017 2.27854 16.0813 2.47111C16.161 2.66369 16.2019 2.87006 16.2018 3.07846C16.2017 3.28686 16.1606 3.4932 16.0807 3.68569C16.0009 3.87819 15.8839 4.05307 15.7365 4.20036C15.5891 4.34765 15.4141 4.46446 15.2215 4.54411C15.0289 4.62377 14.8225 4.66472 14.6141 4.66462C14.1932 4.66441 13.7895 4.49698 13.492 4.19916C13.1944 3.90134 13.0274 3.49752 13.0276 3.07654C13.0278 2.65556 13.1952 2.2519 13.4931 1.95437C13.7909 1.65683 14.1947 1.4898 14.6157 1.49V1.49077ZM10.0003 1.53846C4.9103 1.53846 0.769531 5.67923 0.769531 10.7692C0.769531 15.8592 4.9103 20 10.0003 20C15.0903 20 19.2311 15.8592 19.2311 10.7692C19.2311 9.22308 18.848 7.77231 18.1734 6.49C18.0711 6.69308 17.968 6.88615 17.8611 7.09154C17.6588 7.48231 17.4457 7.87692 17.2595 8.26923C17.4518 8.81923 17.5841 9.40077 17.6441 10H16.6349C16.5795 10.2577 16.5388 10.5 16.5388 10.7454V11.5385H17.6449C17.5405 12.6229 17.2042 13.6723 16.6588 14.6154H14.4003C14.5695 13.8938 14.6672 13.0962 14.7365 12.2838H13.2211C13.1494 13.0709 13.013 13.8507 12.8134 14.6154H7.18722C6.92726 13.6086 6.7741 12.5773 6.7303 11.5385H12.6918V10.7454C12.6859 10.4942 12.6537 10.2444 12.5957 10H6.73107C6.77487 8.96116 6.92802 7.92982 7.18799 6.92308H11.2988C11.0319 6.41923 10.7831 5.90609 10.5526 5.38462H7.71645C8.35261 3.93308 9.19338 3.07692 10.0003 3.07692C10.0003 2.54231 10.0965 2.04 10.2649 1.56231C10.1765 1.55923 10.0895 1.53846 10.0003 1.53846ZM6.82722 3.77385C6.52088 4.28547 6.26334 4.82476 6.05799 5.38462H4.51953C5.18306 4.71023 5.96541 4.16415 6.82722 3.77385ZM3.34184 6.92308H5.6003C5.36764 7.93358 5.23088 8.96379 5.19184 10H2.35569C2.45971 8.91546 2.79605 7.86603 3.34184 6.92308ZM2.35569 11.5385H5.19261C5.23799 12.6346 5.37953 13.6692 5.60107 14.6154H3.34184C2.79671 13.6721 2.46041 12.6229 2.35569 11.5385ZM4.51953 16.1538H6.05799C6.27953 16.7508 6.53876 17.2869 6.82722 17.7646C5.96541 17.3743 5.18306 16.8282 4.51953 16.1538ZM7.71645 16.1538H12.2841C11.648 17.6054 10.8072 18.4615 10.0003 18.4615C9.19338 18.4615 8.35184 17.6054 7.71645 16.1538ZM13.9426 16.1538H15.4811C14.8175 16.8282 14.0352 17.3743 13.1734 17.7646C13.4618 17.2877 13.7211 16.7515 13.9426 16.1538Z" fill="white"/>
</g>
<defs>
<clipPath id="clip0_227_21122">
<rect width="20" height="20" fill="white"/>
</clipPath>
</defs>
</svg>
