<svg width="44" height="48" viewBox="0 0 44 48" fill="none" xmlns="http://www.w3.org/2000/svg">
<path d="M13.7142 20.8691H8.94409V25.6396H13.7142V20.8691Z" fill="white"/>
<path d="M34.5836 20.8691H29.8135V25.6396H34.5836V20.8691Z" fill="white"/>
<path d="M27.6272 20.8691H22.8571V25.6396H27.6272V20.8691Z" fill="white"/>
<path d="M13.7142 28.3228H8.94409V33.0932H13.7142V28.3228Z" fill="white"/>
<path d="M27.6272 28.3228H22.8571V33.0932H27.6272V28.3228Z" fill="white"/>
<path d="M20.6707 28.3228H15.9006V33.0932H20.6707V28.3228Z" fill="white"/>
<path d="M34.5836 35.7764H29.8135V40.5468H34.5836V35.7764Z" fill="white"/>
<path d="M27.6272 35.7764H22.8571V40.5468H27.6272V35.7764Z" fill="white"/>
<path d="M20.6707 35.7764H15.9006V40.5468H20.6707V35.7764Z" fill="white"/>
<path d="M38.946 5.16064H35.067V8.87971C35.067 10.2674 33.9237 11.396 32.5186 11.396H27.4537C26.0486 11.396 24.9054 10.2674 24.9054 8.87971V5.16064H18.6154V8.84475C18.6154 10.2517 17.4595 11.396 16.0387 11.396H11.0302C9.60947 11.396 8.45362 10.2517 8.45362 8.84475V5.16064H4.57462C2.05219 5.16064 0 7.19427 0 9.69384V43.467C0 45.9664 2.05219 48.0002 4.57462 48.0002H38.946C41.4723 48.0002 43.5276 45.9665 43.5276 43.467V9.69384C43.5276 7.19437 41.4723 5.16064 38.946 5.16064ZM40.2482 43.3789C40.2482 44.1814 39.709 44.7204 38.9065 44.7204H4.62103C3.81853 44.7204 3.27937 44.1814 3.27937 43.3789V16.6959H40.2482V43.3789Z" fill="white"/>
<path d="M11.0318 9.61005H16.0373C16.4611 9.61005 16.8059 9.26758 16.8059 8.84655V1.92122C16.8059 0.861846 15.9368 0 14.8685 0H12.2004C11.1322 0 10.2628 0.861752 10.2628 1.92122V8.84655C10.2629 9.26758 10.6077 9.61005 11.0318 9.61005Z" fill="white"/>
<path d="M27.4538 9.61005H32.5186C32.9262 9.61005 33.2577 9.28071 33.2577 8.87636V1.89169C33.2577 0.84872 32.402 0 31.3498 0H28.6226C27.5706 0 26.7148 0.84872 26.7148 1.89169V8.87636C26.7148 9.28071 27.0463 9.61005 27.4538 9.61005Z" fill="white"/>
</svg>
