<svg width="25" height="25" viewBox="0 0 25 25" fill="none" xmlns="http://www.w3.org/2000/svg">
<g clip-path="url(#clip0_546_2867)">
<path d="M17.7096 21.875V19.7917C17.7096 18.6866 17.2706 17.6268 16.4892 16.8454C15.7078 16.064 14.648 15.625 13.543 15.625H5.20964C4.10457 15.625 3.04476 16.064 2.26336 16.8454C1.48196 17.6268 1.04297 18.6866 1.04297 19.7917V21.875M23.9596 21.875V19.7917C23.9589 18.8685 23.6517 17.9716 23.0861 17.242C22.5204 16.5124 21.7285 15.9912 20.8346 15.7604M16.668 3.26042C17.5642 3.4899 18.3586 4.01115 18.9259 4.74199C19.4932 5.47283 19.8011 6.3717 19.8011 7.29687C19.8011 8.22205 19.4932 9.12092 18.9259 9.85176C18.3586 10.5826 17.5642 11.1039 16.668 11.3333M13.543 7.29167C13.543 9.59285 11.6775 11.4583 9.3763 11.4583C7.07512 11.4583 5.20964 9.59285 5.20964 7.29167C5.20964 4.99048 7.07512 3.125 9.3763 3.125C11.6775 3.125 13.543 4.99048 13.543 7.29167Z" stroke="#121212" stroke-width="4" stroke-linecap="round" stroke-linejoin="round"/>
</g>
<defs>
<clipPath id="clip0_546_2867">
<rect width="25" height="25" fill="white"/>
</clipPath>
</defs>
</svg>
