<svg width="32" height="32" viewBox="0 0 32 32" fill="none" xmlns="http://www.w3.org/2000/svg">
<rect width="32" height="32" rx="16" fill="#F7F7F7"/>
<path d="M13.1172 21.2413H18.8859V10.7588H13.1172V21.2413Z" fill="#FF5F00"/>
<path d="M13.4806 15.9996C13.4806 13.873 14.4653 11.9789 15.9987 10.7584C14.8772 9.8656 13.4623 9.33301 11.9243 9.33301C8.28343 9.33301 5.33203 12.3178 5.33203 15.9996C5.33203 19.6815 8.28343 22.6663 11.9243 22.6663C13.4623 22.6663 14.8772 22.1337 15.9987 21.2409C14.4653 20.0202 13.4806 18.1263 13.4806 15.9996" fill="#EB001B"/>
<path fill-rule="evenodd" clip-rule="evenodd" d="M20.0744 22.6663C23.7151 22.6663 26.6667 19.6815 26.6667 15.9996C26.6667 12.3178 23.7151 9.33301 20.0744 9.33301C18.5364 9.33301 17.1213 9.8656 16 10.7584C17.5334 11.9791 18.5181 13.8732 18.5181 15.9996C18.5181 18.1263 17.5334 20.0204 16 21.2409C17.1213 22.1337 18.5364 22.6663 20.0744 22.6663ZM26.4608 20.1307V19.872H26.394L26.3172 20.05L26.2403 19.872H26.1735V20.1307H26.2206V19.9356L26.2927 20.1039H26.3416L26.4138 19.9352V20.1307H26.4608ZM26.0376 20.1307V19.9161H26.1233V19.8724H25.9054V19.9161H25.9909V20.1307H26.0376Z" fill="#F79E1B"/>
</svg>
