<svg width="28" height="28" viewBox="0 0 28 28" fill="none" xmlns="http://www.w3.org/2000/svg">
<g clip-path="url(#clip0_546_2857)">
<path d="M10.6037 10.5002C10.878 9.72044 11.4194 9.06295 12.132 8.64415C12.8446 8.22535 13.6824 8.07226 14.4971 8.21199C15.3117 8.35173 16.0507 8.77527 16.583 9.40761C17.1153 10.0399 17.4066 10.8403 17.4054 11.6668C17.4054 14.0002 13.9054 15.1668 13.9054 15.1668M13.9987 19.8335H14.0104M25.6654 14.0002C25.6654 20.4435 20.442 25.6668 13.9987 25.6668C7.55538 25.6668 2.33203 20.4435 2.33203 14.0002C2.33203 7.55684 7.55538 2.3335 13.9987 2.3335C20.442 2.3335 25.6654 7.55684 25.6654 14.0002Z" stroke="#1E1E1E" stroke-width="4" stroke-linecap="round" stroke-linejoin="round"/>
</g>
<defs>
<clipPath id="clip0_546_2857">
<rect width="28" height="28" fill="white"/>
</clipPath>
</defs>
</svg>
