<svg width="104" height="104" viewBox="0 0 104 104" fill="none" xmlns="http://www.w3.org/2000/svg">
<path d="M51.6667 0C41.448 0 31.4588 3.0302 22.9622 8.7074C14.4657 14.3846 7.84344 22.4538 3.93291 31.8947C0.0223863 41.3355 -1.00079 51.724 0.992784 61.7463C2.98635 71.7687 7.90713 80.9748 15.1328 88.2005C22.3586 95.4262 31.5647 100.347 41.587 102.341C51.6094 104.334 61.9978 103.311 71.4387 99.4004C80.8795 95.4899 88.9487 88.8677 94.6259 80.3711C100.303 71.8746 103.333 61.8854 103.333 51.6667C103.333 44.8817 101.997 38.1632 99.4005 31.8947C96.804 25.6262 92.9982 19.9305 88.2005 15.1328C83.4028 10.3351 77.7072 6.52938 71.4387 3.93289C65.1702 1.3364 58.4517 0 51.6667 0V0ZM51.6667 93C40.7044 93 30.1911 88.6452 22.4396 80.8937C14.6881 73.1422 10.3334 62.6289 10.3334 51.6667C10.3219 42.4873 13.3973 33.5706 19.065 26.35L76.9834 84.2683C69.7627 89.9361 60.8461 93.0114 51.6667 93V93ZM84.2683 76.9833L26.35 19.065C33.5707 13.3972 42.4873 10.3219 51.6667 10.3333C62.629 10.3333 73.1423 14.6881 80.8938 22.4396C88.6453 30.1911 93 40.7044 93 51.6667C93.0114 60.846 89.9361 69.7627 84.2683 76.9833Z" fill="#EB001B"/>
</svg>
