<svg width="25" height="25" viewBox="0 0 25 25" fill="none" xmlns="http://www.w3.org/2000/svg">
<g clip-path="url(#clip0_546_2864)">
<path d="M16.668 21.875V19.7917C16.668 18.6866 16.229 17.6268 15.4476 16.8454C14.6662 16.064 13.6064 15.625 12.5013 15.625H5.20964C4.10457 15.625 3.04476 16.064 2.26336 16.8454C1.48196 17.6268 1.04297 18.6866 1.04297 19.7917V21.875M20.8346 8.33333V14.5833M23.9596 11.4583H17.7096M13.0221 7.29167C13.0221 9.59285 11.1567 11.4583 8.85547 11.4583C6.55428 11.4583 4.6888 9.59285 4.6888 7.29167C4.6888 4.99048 6.55428 3.125 8.85547 3.125C11.1567 3.125 13.0221 4.99048 13.0221 7.29167Z" stroke="white" stroke-width="4" stroke-linecap="round" stroke-linejoin="round"/>
</g>
<defs>
<clipPath id="clip0_546_2864">
<rect width="25" height="25" fill="white"/>
</clipPath>
</defs>
</svg>
