<svg width="18" height="20" viewBox="0 0 18 20" fill="none" xmlns="http://www.w3.org/2000/svg">
<path d="M9 19.1101C4.0293 19.1101 0 14.8323 0 9.55507C0 5.27631 2.6487 1.65494 6.3 0.437622V2.46712C4.75283 3.1341 3.47202 4.3511 2.67665 5.90992C1.88129 7.46874 1.62079 9.27253 1.93973 11.0127C2.25866 12.7529 3.13721 14.3214 4.42509 15.4499C5.71297 16.5784 7.33015 17.1967 9 17.1991C10.4344 17.1991 11.8361 16.7443 13.0256 15.8932C14.215 15.042 15.138 13.8332 15.6762 12.4216H17.5878C16.4412 16.2981 13.0302 19.1101 9 19.1101ZM17.955 10.5106H8.1V0.0477753C8.3961 0.0162436 8.6967 0 9 0C13.9707 0 18 4.2778 18 9.55507C18 9.87707 17.9847 10.1962 17.955 10.5106ZM9.9 1.97025V8.59956H16.1442C15.9439 6.91558 15.2216 5.3502 14.0911 4.14999C12.9606 2.94978 11.4862 2.18294 9.9 1.97025Z" fill="white"/>
</svg>
