<svg width="32" height="32" viewBox="0 0 32 32" fill="none" xmlns="http://www.w3.org/2000/svg">
<path d="M28.079 15.7598L27.8656 15.4665C27.4923 15.0131 27.0523 14.6531 26.5456 14.3865C25.8656 13.9998 25.0923 13.7998 24.2923 13.7998H7.69229C6.89229 13.7998 6.13229 13.9998 5.43896 14.3865C4.91896 14.6665 4.45229 15.0531 4.06563 15.5331C3.30563 16.5065 2.94563 17.7065 3.06563 18.9065L3.55896 25.1331C3.73229 27.0131 3.95896 29.3331 8.18563 29.3331H23.8123C28.039 29.3331 28.2523 27.0131 28.439 25.1198L28.9323 18.9198C29.0523 17.7998 28.759 16.6798 28.079 15.7598ZM19.1856 23.1198H12.799C12.279 23.1198 11.8656 22.6931 11.8656 22.1865C11.8656 21.6798 12.279 21.2531 12.799 21.2531H19.1856C19.7056 21.2531 20.119 21.6798 20.119 22.1865C20.119 22.7065 19.7056 23.1198 19.1856 23.1198Z" fill="#3366FF"/>
<path opacity="0.4" d="M4.50781 15.0798C4.80115 14.8132 5.09448 14.5732 5.44115 14.3865C6.12115 13.9998 6.89448 13.7998 7.69448 13.7998H24.3078C25.1078 13.7998 25.8678 13.9998 26.5611 14.3865C26.9078 14.5732 27.2145 14.8132 27.4945 15.0932V14.3865V13.0932C27.4945 8.33317 26.0411 6.87984 21.2811 6.87984H18.1078C17.5211 6.87984 17.5078 6.8665 17.1611 6.41317L15.5611 4.2665C14.8011 3.27984 14.2011 2.6665 12.2945 2.6665H10.7211C5.96115 2.6665 4.50781 4.11984 4.50781 8.87984V14.3998V15.0798Z" fill="#3366FF"/>
</svg>
