<svg width="27" height="27" viewBox="0 0 27 27" fill="none" xmlns="http://www.w3.org/2000/svg">
<path d="M0 13.3333C0 15.9704 0.781986 18.5483 2.24707 20.7409C3.71216 22.9336 5.79454 24.6426 8.23089 25.6517C10.6672 26.6609 13.3481 26.9249 15.9345 26.4105C18.521 25.896 20.8967 24.6261 22.7614 22.7614C24.6261 20.8967 25.896 18.521 26.4105 15.9345C26.9249 13.3481 26.6609 10.6672 25.6517 8.23089C24.6426 5.79454 22.9336 3.71216 20.7409 2.24707C18.5483 0.781986 15.9704 0 13.3333 0C9.79832 0.00393144 6.40922 1.40995 3.90959 3.90959C1.40995 6.40922 0.00393144 9.79832 0 13.3333V13.3333ZM14.276 7.05733C14.3998 7.18111 14.4981 7.32807 14.5651 7.48982C14.6321 7.65158 14.6666 7.82495 14.6666 8.00004C14.6666 8.17513 14.6321 8.3485 14.5651 8.51026C14.4981 8.67201 14.3998 8.81897 14.276 8.94275L11.2187 12H18.6667C19.0203 12 19.3594 12.1405 19.6095 12.3905C19.8595 12.6406 20 12.9797 20 13.3333C20 13.687 19.8595 14.0261 19.6095 14.2761C19.3594 14.5262 19.0203 14.6667 18.6667 14.6667H11.2187L14.2761 17.724C14.5235 17.9746 14.6617 18.3128 14.6606 18.665C14.6595 19.0171 14.5191 19.3545 14.2701 19.6035C14.0211 19.8524 13.6837 19.9928 13.3316 19.9939C12.9795 19.995 12.6412 19.8568 12.3907 19.6093L7.05773 14.2764C6.80865 14.0257 6.66884 13.6867 6.66884 13.3333C6.66884 12.9799 6.80865 12.6409 7.05773 12.3902L12.3907 7.05733C12.5144 6.9335 12.6614 6.83527 12.8231 6.76826C12.9849 6.70124 13.1583 6.66674 13.3333 6.66674C13.5084 6.66674 13.6818 6.70124 13.8435 6.76826C14.0053 6.83527 14.1522 6.9335 14.276 7.05733V7.05733Z" fill="#5F66E9"/>
</svg>
