<svg width="107" height="107" viewBox="0 0 107 107" fill="none" xmlns="http://www.w3.org/2000/svg">
<path d="M84.4483 62.2245C83.8821 62.0775 83.2925 62.0438 82.7132 62.1252C82.134 62.2066 81.5765 62.4015 81.0727 62.6988C80.569 62.9961 80.1289 63.3899 79.7776 63.8577C79.4264 64.3254 79.1709 64.8579 79.0259 65.4246C77.3263 72.1294 73.4409 78.0767 67.9836 82.3266C62.5264 86.5765 55.8085 88.8867 48.8916 88.892H24.0464L26.8909 86.0919C27.7188 85.2592 28.1834 84.1327 28.1834 82.9585C28.1834 81.7843 27.7188 80.6578 26.8909 79.825C22.5241 75.4763 19.5472 69.9286 18.3377 63.8855C17.1283 57.8425 17.7408 51.5764 20.0976 45.882C22.4544 40.1876 26.4493 35.3214 31.5756 31.9006C36.702 28.4798 42.7288 26.6586 48.8916 26.6678C50.0704 26.6678 51.2009 26.1996 52.0344 25.366C52.8679 24.5325 53.3362 23.402 53.3362 22.2232C53.3362 21.0445 52.8679 19.914 52.0344 19.0805C51.2009 18.2469 50.0704 17.7787 48.8916 17.7787C41.369 17.8034 34.0058 19.9489 27.6473 23.9688C21.2889 27.9887 16.1928 33.7202 12.9441 40.5052C9.6955 47.2902 8.42595 54.8538 9.28125 62.3277C10.1366 69.8016 13.082 76.8828 17.7795 82.7585L10.1793 90.1809C9.56259 90.8059 9.14481 91.5996 8.9787 92.4618C8.81259 93.324 8.90558 94.2161 9.24594 95.0255C9.57938 95.8372 10.1456 96.532 10.8733 97.0224C11.6009 97.5128 12.4575 97.7768 13.335 97.7812H48.8916C57.7641 97.7869 66.3868 94.8426 73.4028 89.4116C80.4189 83.9805 85.4303 76.371 87.6484 67.7802C87.8156 67.2052 87.865 66.6024 87.7934 66.0079C87.7219 65.4134 87.5309 64.8394 87.232 64.3206C86.9332 63.8017 86.5325 63.3485 86.0541 62.9883C85.5758 62.6282 85.0296 62.3683 84.4483 62.2245ZM96.4931 23.3788L83.1594 10.0451C82.7367 9.64045 82.2382 9.32326 81.6926 9.11172C80.6106 8.66719 79.3969 8.66719 78.3148 9.11172C77.7692 9.32326 77.2708 9.64045 76.8481 10.0451L63.5143 23.3788C62.6774 24.2158 62.2072 25.3509 62.2072 26.5345C62.2072 27.7181 62.6774 28.8532 63.5143 29.6901C64.3512 30.5271 65.4864 30.9973 66.67 30.9973C67.8536 30.9973 68.9887 30.5271 69.8256 29.6901L75.5591 24.0455V48.8907C75.5591 50.0695 76.0274 51.2 76.8609 52.0335C77.6944 52.8671 78.8249 53.3353 80.0037 53.3353C81.1825 53.3353 82.313 52.8671 83.1465 52.0335C83.98 51.2 84.4483 50.0695 84.4483 48.8907V24.0455L90.1818 29.8235C90.595 30.2401 91.0866 30.5707 91.6282 30.7964C92.1698 31.022 92.7507 31.1382 93.3375 31.1382C93.9242 31.1382 94.5051 31.022 95.0467 30.7964C95.5884 30.5707 96.0799 30.2401 96.4931 29.8235C96.9097 29.4103 97.2404 28.9187 97.466 28.3771C97.6916 27.8355 97.8078 27.2546 97.8078 26.6678C97.8078 26.0811 97.6916 25.5002 97.466 24.9585C97.2404 24.4169 96.9097 23.9254 96.4931 23.5122V23.3788Z" fill="#5459EA"/>
</svg>
