<svg width="87" height="87" viewBox="0 0 87 87" fill="none" xmlns="http://www.w3.org/2000/svg">
<path d="M34.3652 4.73556C38.8201 -1.57852 48.1838 -1.57852 52.6387 4.73556L52.9249 5.14126C55.4135 8.66849 59.7102 10.4482 63.964 9.71381L64.4533 9.62934C72.0681 8.31466 78.6892 14.9358 77.3746 22.5506L77.2901 23.0399C76.5557 27.2937 78.3354 31.5904 81.8626 34.079L82.2683 34.3652C88.5824 38.8201 88.5824 48.1838 82.2683 52.6387L81.8626 52.9249C78.3354 55.4135 76.5557 59.7102 77.2901 63.964L77.3746 64.4533C78.6892 72.0681 72.0681 78.6892 64.4533 77.3746L63.964 77.2901C59.7102 76.5557 55.4135 78.3354 52.9249 81.8626L52.6387 82.2683C48.1838 88.5824 38.8201 88.5824 34.3652 82.2683L34.079 81.8626C31.5904 78.3354 27.2937 76.5557 23.0399 77.2901L22.5506 77.3746C14.9358 78.6892 8.31466 72.0681 9.62934 64.4533L9.71381 63.964C10.4482 59.7102 8.66849 55.4135 5.14126 52.9249L4.73556 52.6387C-1.57852 48.1838 -1.57852 38.8201 4.73556 34.3652L5.14126 34.079C8.66849 31.5904 10.4482 27.2937 9.71381 23.0399L9.62934 22.5506C8.31466 14.9358 14.9358 8.31466 22.5506 9.62934L23.0399 9.71381C27.2937 10.4482 31.5904 8.66849 34.079 5.14126L34.3652 4.73556Z" fill="#C8E6C9"/>
<path d="M59.2695 29.0991C60.2802 28.0885 61.9191 28.0885 62.9297 29.0991C63.9399 30.1097 63.9399 31.7477 62.9297 32.7583L37.7881 57.8999C37.3036 58.3868 36.6447 58.6586 35.96 58.6587H35.9482C35.2597 58.6552 34.6011 58.3789 34.1152 57.8862H34.1143L24.0586 47.6733C23.0542 46.6549 23.0694 45.0169 24.0859 44.0142V44.0132C25.1024 43.014 26.743 43.0229 27.7451 44.0415H27.7461L35.9707 52.396L59.2695 29.0991Z" fill="#43A048" stroke="#43A048" stroke-width="1.40323"/>
</svg>
