<svg width="12" height="14" viewBox="0 0 12 14" fill="none" xmlns="http://www.w3.org/2000/svg">
<path fill-rule="evenodd" clip-rule="evenodd" d="M2.57031 5.80397C2.57031 4.96837 2.9125 4.16699 3.52161 3.57612C4.13071 2.98526 4.95683 2.65332 5.81824 2.65332C6.67964 2.65332 7.50576 2.98526 8.11486 3.57612C8.72397 4.16699 9.06616 4.96837 9.06616 5.80397C9.06616 6.63957 8.72397 7.44095 8.11486 8.03182C7.50576 8.62268 6.67964 8.95462 5.81824 8.95462C4.95683 8.95462 4.13071 8.62268 3.52161 8.03182C2.9125 7.44095 2.57031 6.63957 2.57031 5.80397ZM5.81824 3.64826C5.22886 3.64826 4.66361 3.87538 4.24686 4.27965C3.8301 4.68393 3.59597 5.23224 3.59597 5.80397C3.59597 6.3757 3.8301 6.92401 4.24686 7.32828C4.66361 7.73256 5.22886 7.95968 5.81824 7.95968C6.40762 7.95968 6.97286 7.73256 7.38961 7.32828C7.80637 6.92401 8.0405 6.3757 8.0405 5.80397C8.0405 5.23224 7.80637 4.68393 7.38961 4.27965C6.97286 3.87538 6.40762 3.64826 5.81824 3.64826Z" fill="white"/>
<path fill-rule="evenodd" clip-rule="evenodd" d="M0.0206744 5.04568C0.137549 3.67054 0.783237 2.38832 1.82954 1.45359C2.87584 0.518866 4.24624 -4.20235e-06 5.66864 0H5.96403C7.38644 -4.20235e-06 8.75684 0.518866 9.80314 1.45359C10.8494 2.38832 11.4951 3.67054 11.612 5.04568C11.7421 6.57742 11.2542 8.09834 10.2513 9.28811L6.97397 13.1757C6.83371 13.3421 6.6571 13.4761 6.45689 13.5682C6.25669 13.6602 6.0379 13.708 5.81634 13.708C5.59478 13.708 5.37599 13.6602 5.17578 13.5682C4.97558 13.4761 4.79896 13.3421 4.65871 13.1757L1.38138 9.28811C0.378367 8.09837 -0.109458 6.57743 0.0206744 5.04568ZM5.66864 0.994942C4.50382 0.995113 3.38165 1.42013 2.52487 2.18564C1.66809 2.95114 1.13935 4.00116 1.0436 5.12727C0.93529 6.40203 1.34124 7.66781 2.17593 8.65798L5.45325 12.5462C5.49731 12.5985 5.5528 12.6407 5.61572 12.6696C5.67863 12.6986 5.74739 12.7136 5.81702 12.7136C5.88665 12.7136 5.95541 12.6986 6.01833 12.6696C6.08124 12.6407 6.13673 12.5985 6.18079 12.5462L9.45812 8.65798C10.2923 7.66761 10.6978 6.40185 10.5891 5.12727C10.4933 4.00104 9.96447 2.95093 9.10755 2.18541C8.25063 1.41989 7.12829 0.994946 5.96335 0.994942H5.66864Z" fill="white"/>
</svg>
