<svg width="136" height="136" viewBox="0 0 136 136" fill="none" xmlns="http://www.w3.org/2000/svg">
<path d="M89.0028 29.9935L72.0028 12.9935C71.4768 12.4672 70.8522 12.0497 70.1647 11.7648C69.4773 11.4799 68.7404 11.3333 67.9963 11.3333C67.2522 11.3333 66.5153 11.4799 65.8279 11.7648C65.1404 12.0497 64.5158 12.4672 63.9898 12.9935L46.9898 29.9935C45.9383 31.0584 45.3508 32.496 45.3555 33.9926C45.3602 35.4891 45.9569 36.923 47.0151 37.9812C48.0733 39.0394 49.5073 39.636 51.0038 39.6406C52.5003 39.6453 53.938 39.0577 55.0028 38.0062L62.3298 30.6795V96.3332C62.3298 97.8361 62.9268 99.2774 63.9895 100.34C65.0522 101.403 66.4936 102 67.9965 102C69.4994 102 70.9407 101.403 72.0034 100.34C73.0661 99.2774 73.6631 97.8361 73.6631 96.3332V30.6795L80.9901 38.0065C82.055 39.058 83.4927 39.6455 84.9892 39.6408C86.4858 39.6361 87.9196 39.0394 88.9778 37.9812C90.036 36.923 90.6326 35.489 90.6373 33.9925C90.642 32.496 90.0544 31.0583 89.0028 29.9935V29.9935Z" fill="#6563FF"/>
<path d="M102 51H73.6667V96.3333C73.6667 97.8362 73.0696 99.2776 72.0069 100.34C70.9442 101.403 69.5029 102 68 102C66.4971 102 65.0558 101.403 63.9931 100.34C62.9304 99.2776 62.3333 97.8362 62.3333 96.3333V51H34C29.4928 51.0049 25.1717 52.7976 21.9846 55.9846C18.7976 59.1717 17.0049 63.4928 17 68V107.667C17.0049 112.174 18.7976 116.495 21.9846 119.682C25.1717 122.869 29.4928 124.662 34 124.667H102C106.507 124.662 110.828 122.869 114.015 119.682C117.202 116.495 118.995 112.174 119 107.667V68C118.995 63.4928 117.202 59.1717 114.015 55.9846C110.828 52.7976 106.507 51.0049 102 51Z" fill="#A2A1FF"/>
</svg>
