<svg width="20" height="21" viewBox="0 0 20 21" fill="none" xmlns="http://www.w3.org/2000/svg">
<path d="M19.32 2.29626L13.32 0.056333H13.25C13.2034 0.0510933 13.1565 0.0510933 13.11 0.056333H12.88H12.75H12.68L7 2.24026L1.32 0.056333C1.16962 0.000795642 1.00961 -0.0139501 0.853138 0.0133093C0.69667 0.0405687 0.548219 0.109054 0.420003 0.213128C0.290762 0.316183 0.185268 0.452199 0.112238 0.60994C0.039208 0.76768 0.000736953 0.942617 3.33353e-06 1.1203V16.7998C-0.000537828 17.0346 0.0648223 17.2636 0.186845 17.4546C0.308868 17.6455 0.481382 17.7886 0.680003 17.8638L6.68 20.1037C6.88145 20.1773 7.09855 20.1773 7.3 20.1037L13 17.9758L18.68 20.1597C18.7862 20.1758 18.8938 20.1758 19 20.1597C19.2091 20.163 19.4132 20.0881 19.58 19.9469C19.7092 19.8439 19.8147 19.7078 19.8878 19.5501C19.9608 19.3924 19.9993 19.2174 20 19.0397V3.36023C20.0005 3.12544 19.9352 2.89639 19.8132 2.70547C19.6911 2.51454 19.5186 2.3714 19.32 2.29626ZM6 17.483L2 15.9934V2.67705L6 4.1666V17.483ZM12 15.9934L8 17.483V4.1666L12 2.67705V15.9934ZM18 17.483L14 15.9934V2.67705L18 4.1666V17.483Z" fill="white"/>
</svg>
