<svg width="20" height="19" viewBox="0 0 20 19" fill="none" xmlns="http://www.w3.org/2000/svg">
<path d="M19.32 2.16287L13.32 0.0530605H13.25C13.2034 0.0481253 13.1565 0.0481253 13.11 0.0530605H12.88H12.75H12.68L7 2.11013L1.32 0.0530605C1.16962 0.000749422 1.00961 -0.0131397 0.853138 0.0125362C0.69667 0.038212 0.548219 0.102719 0.420003 0.200747C0.290762 0.297816 0.185268 0.42593 0.112238 0.574507C0.039208 0.723084 0.000736953 0.887859 3.33353e-06 1.05522V15.8239C-0.000537828 16.045 0.0648223 16.2608 0.186845 16.4406C0.308868 16.6204 0.481382 16.7553 0.680003 16.826L6.68 18.9359C6.88145 19.0051 7.09855 19.0051 7.3 18.9359L13 16.9315L18.68 18.9886C18.7862 19.0038 18.8938 19.0038 19 18.9886C19.2091 18.9917 19.4132 18.9212 19.58 18.7882C19.7092 18.6911 19.8147 18.563 19.8878 18.4144C19.9608 18.2658 19.9993 18.1011 20 17.9337V3.16503C20.0005 2.94388 19.9352 2.72813 19.8132 2.5483C19.6911 2.36847 19.5186 2.23364 19.32 2.16287ZM6 16.4674L2 15.0644V2.52154L6 3.92456V16.4674ZM12 15.0644L8 16.4674V3.92456L12 2.52154V15.0644ZM18 16.4674L14 15.0644V2.52154L18 3.92456V16.4674Z" fill="#5459EA"/>
</svg>
