<svg width="32" height="32" viewBox="0 0 32 32" fill="none" xmlns="http://www.w3.org/2000/svg">
<rect width="32" height="32" rx="16" fill="#F7F7F7"/>
<path d="M19.3984 12C20.5201 12 21.3154 12.3438 21.3154 12.3438L20.9619 13.9795C20.9619 13.9795 20.2308 13.6094 19.335 13.6094C18.5409 13.6094 18.1582 13.9593 18.1582 14.2783C18.1592 15.1756 20.9451 15.305 20.9453 17.3389C20.9453 19.0464 19.4383 20 17.5234 20C16.2327 20 15.2604 19.57 15.2588 19.5693L15.6201 17.876C15.636 17.8855 16.4754 18.3847 17.5947 18.3848C18.391 18.3848 18.8573 18.0205 18.8574 17.6133C18.8574 16.6461 16.0824 16.5129 16.082 14.5879C16.082 12.909 17.647 12 19.3984 12ZM6.71777 12.123C7.20047 12.123 7.59481 12.4149 7.67285 12.9258L8.52246 17.3926L10.6035 12.123H12.7002L9.46191 19.873H7.36035L5.79199 13.8213C5.64811 13.2631 5.58683 13.0831 4.73242 12.7744C4.06883 12.5052 3.33203 12.3701 3.33203 12.3701L3.37402 12.123H6.71777ZM13.8984 19.873H11.8984L13.5439 12.123H15.5381L13.8984 19.873ZM27.999 19.873H26.1484L25.9014 18.6992H23.3467L22.9404 19.873H20.8428L23.7734 12.834C23.9609 12.3824 24.2161 12.1231 24.6982 12.123H26.3838L27.999 19.873ZM23.9277 17.125H25.5928L24.9717 14.2168L23.9277 17.125Z" fill="#1434CB"/>
</svg>
